{"accessors":[{"bufferView":3,"componentType":5126,"count":1480,"max":[84.28533172607422,227.31375122070312,21.3587589263916],"min":[-84.28533172607422,25.060874938964844,-19.25092887878418],"type":"VEC3"},{"bufferView":3,"byteOffset":17760,"componentType":5126,"count":1480,"max":[0.9974509477615356,0.9816588759422302,0.9999984502792358],"min":[-0.9974508881568909,-0.9965323805809021,-0.9982705116271973],"type":"VEC3"},{"bufferView":2,"componentType":5126,"count":1480,"max":[1.9947094917297363,0.9933521747589111],"min":[0.003365159034729004,0.0044206976890563965],"type":"VEC2"},{"bufferView":1,"componentType":5125,"count":6588,"type":"SCALAR"},{"bufferView":3,"byteOffset":35520,"componentType":5126,"count":96,"max":[13.509978294372559,197.78944396972656,19.791536331176758],"min":[-13.509967803955078,174.50787353515625,12.721138000488281],"type":"VEC3"},{"bufferView":3,"byteOffset":36672,"componentType":5126,"count":96,"max":[0.9371013641357422,0.9957174062728882,0.9748287200927734],"min":[-0.7405257225036621,-0.8929650783538818,-0.2524978816509247],"type":"VEC3"},{"bufferView":2,"byteOffset":11840,"componentType":5126,"count":96,"max":[0.49304115772247314,0.6021943092346191],"min":[0.005521997809410095,0.010505080223083496],"type":"VEC2"},{"bufferView":1,"byteOffset":26352,"componentType":5125,"count":246,"type":"SCALAR"},{"bufferView":3,"byteOffset":37824,"componentType":5126,"count":935,"max":[11.551895141601562,233.82481384277344,16.301332473754883],"min":[-11.551895141601562,207.54144287109375,-5.690751075744629],"type":"VEC3"},{"bufferView":3,"byteOffset":49044,"componentType":5126,"count":935,"max":[0.9974613785743713,0.9997862577438354,0.9999852180480957],"min":[-0.9974613785743713,-0.9962117075920105,-0.9936811327934265],"type":"VEC3"},{"bufferView":2,"byteOffset":12608,"componentType":5126,"count":935,"max":[1.1370309591293335,0.9887959957122803],"min":[0.004724999889731407,0.02729400061070919],"type":"VEC2"},{"bufferView":1,"byteOffset":27336,"componentType":5125,"count":4770,"type":"SCALAR"},{"bufferView":3,"byteOffset":60264,"componentType":5126,"count":430,"max":[13.716650009155273,234.1317138671875,15.096179962158203],"min":[-13.241909980773926,204.0702362060547,-13.598480224609375],"type":"VEC3"},{"bufferView":3,"byteOffset":65424,"componentType":5126,"count":430,"max":[0.9957091212272644,0.9968963861465454,0.9971165060997009],"min":[-0.9977678656578064,-0.9611397385597229,-0.9866611957550049],"type":"VEC3"},{"bufferView":2,"byteOffset":20088,"componentType":5126,"count":430,"max":[0.9913880228996277,0.992775022983551],"min":[0.010209999978542328,0.0052280002273619175],"type":"VEC2"},{"bufferView":1,"byteOffset":46416,"componentType":5125,"count":1926,"type":"SCALAR"},{"bufferView":3,"byteOffset":70584,"componentType":5126,"count":575,"max":[65.22831726074219,246.21534729003906,24.02912139892578],"min":[-65.22831726074219,176.37060546875,-40.93212127685547],"type":"VEC3"},{"bufferView":3,"byteOffset":77484,"componentType":5126,"count":575,"max":[0.9904501438140869,0.9901902079582214,0.9996739029884338],"min":[-0.990450382232666,-0.6804407835006714,-0.9745243191719055],"type":"VEC3"},{"bufferView":2,"byteOffset":23528,"componentType":5126,"count":575,"max":[1.5807409286499023,0.9918726682662964],"min":[0.0061675310134887695,0.009149312973022461],"type":"VEC2"},{"bufferView":1,"byteOffset":54120,"componentType":5125,"count":2292,"type":"SCALAR"},{"bufferView":3,"byteOffset":84384,"componentType":5126,"count":194,"max":[86.73438262939453,208.549072265625,-10.930479049682617],"min":[-89.74358367919922,38.26665115356445,-79.91032409667969],"type":"VEC3"},{"bufferView":3,"byteOffset":86712,"componentType":5126,"count":194,"max":[0.7604389190673828,0.9221569895744324,-0.22108803689479828],"min":[-0.7604389190673828,0.180604949593544,-0.9828982949256897],"type":"VEC3"},{"bufferView":2,"byteOffset":28128,"componentType":5126,"count":194,"max":[1.98134446144104,0.9785188436508179],"min":[0.023848460987210274,0.05328884720802307],"type":"VEC2"},{"bufferView":1,"byteOffset":63288,"componentType":5125,"count":906,"type":"SCALAR"},{"bufferView":3,"byteOffset":89040,"componentType":5126,"count":194,"max":[86.73438262939453,208.549072265625,-10.930479049682617],"min":[-89.74358367919922,38.26665115356445,-79.91032409667969],"type":"VEC3"},{"bufferView":3,"byteOffset":91368,"componentType":5126,"count":194,"max":[0.7604386806488037,-0.180604949593544,0.9828982949256897],"min":[-0.7604386806488037,-0.9221566319465637,0.22108705341815948],"type":"VEC3"},{"bufferView":2,"byteOffset":29680,"componentType":5126,"count":194,"max":[1.6349530220031738,0.6481695175170898],"min":[0.027622157707810402,0.030977781862020493],"type":"VEC2"},{"bufferView":1,"byteOffset":66912,"componentType":5125,"count":906,"type":"SCALAR"},{"bufferView":3,"byteOffset":93696,"componentType":5126,"count":252,"max":[78.09584045410156,175.7352294921875,11.508650779724121],"min":[-78.09584045410156,156.37713623046875,-8.971914291381836],"type":"VEC3"},{"bufferView":3,"byteOffset":96720,"componentType":5126,"count":252,"max":[0.9937214851379395,0.9439238905906677,0.9954466819763184],"min":[-0.9937214255332947,-0.9951235055923462,-0.9677936434745789],"type":"VEC3"},{"bufferView":2,"byteOffset":31232,"componentType":5126,"count":252,"max":[0.9794549942016602,0.9860270023345947],"min":[0.0196710005402565,0.012401998043060303],"type":"VEC2"},{"bufferView":1,"byteOffset":70536,"componentType":5125,"count":1020,"type":"SCALAR"},{"bufferView":3,"byteOffset":99744,"componentType":5126,"count":197,"max":[8.230401039123535,155.41664123535156,33.810089111328125],"min":[-8.569734573364258,98.46034240722656,15.008891105651855],"type":"VEC3"},{"bufferView":3,"byteOffset":102108,"componentType":5126,"count":197,"max":[0.9993558526039124,0.9524064660072327,0.9955001473426819],"min":[-0.9999645352363586,-0.9700437188148499,-0.1629953235387802],"type":"VEC3"},{"bufferView":2,"byteOffset":33248,"componentType":5126,"count":197,"max":[0.2900184392929077,0.5807210803031921],"min":[0.0038428539410233498,0.0062433574348688126],"type":"VEC2"},{"bufferView":1,"byteOffset":74616,"componentType":5125,"count":675,"type":"SCALAR"},{"bufferView":3,"byteOffset":104472,"componentType":5126,"count":30,"max":[13.920351028442383,160.97195434570312,38.12846374511719],"min":[-13.816570281982422,73.48390197753906,7.383100986480713],"type":"VEC3"},{"bufferView":3,"byteOffset":104832,"componentType":5126,"count":30,"max":[0.45633479952812195,0.5718070864677429,0.9782691597938538],"min":[-0.45823970437049866,0.16703756153583527,0.6804801225662231],"type":"VEC3"},{"bufferView":2,"byteOffset":34824,"componentType":5126,"count":30,"max":[0.23023760318756104,0.9924622178077698],"min":[0.006837964057922363,0.3829171061515808],"type":"VEC2"},{"bufferView":1,"byteOffset":77316,"componentType":5125,"count":99,"type":"SCALAR"},{"bufferView":3,"byteOffset":105192,"componentType":5126,"count":212,"max":[57.6295166015625,156.60255432128906,55.12407302856445],"min":[-57.6295166015625,34.82262420654297,-46.675537109375],"type":"VEC3"},{"bufferView":3,"byteOffset":107736,"componentType":5126,"count":212,"max":[0.9740855693817139,0.7494245767593384,0.9775096774101257],"min":[-0.9740855693817139,-0.4089621603488922,-0.9713727831840515],"type":"VEC3"},{"bufferView":2,"byteOffset":35064,"componentType":5126,"count":212,"max":[1.9932900667190552,0.9880110025405884],"min":[0.26305878162384033,0.006295207887887955],"type":"VEC2"},{"bufferView":1,"byteOffset":77712,"componentType":5125,"count":984,"type":"SCALAR"},{"bufferView":3,"byteOffset":110280,"componentType":5126,"count":58,"max":[17.379934310913086,163.95867919921875,19.44469451904297],"min":[-17.379934310913086,138.55548095703125,-12.947997093200684],"type":"VEC3"},{"bufferView":3,"byteOffset":110976,"componentType":5126,"count":58,"max":[0.9472240805625916,0.5686415433883667,0.9747488498687744],"min":[-0.9472441673278809,-0.6620508432388306,-0.9938322305679321],"type":"VEC3"},{"bufferView":2,"byteOffset":36760,"componentType":5126,"count":58,"max":[1.4308037757873535,0.9921106100082397],"min":[0.22260716557502747,0.5967305898666382],"type":"VEC2"},{"bufferView":1,"byteOffset":81648,"componentType":5125,"count":210,"type":"SCALAR"},{"bufferView":3,"byteOffset":111672,"componentType":5126,"count":82,"max":[25.14361572265625,145.9825897216797,33.27021026611328],"min":[-25.14361572265625,82.45402526855469,16.325746536254883],"type":"VEC3"},{"bufferView":3,"byteOffset":112656,"componentType":5126,"count":82,"max":[0.8953916430473328,0.34341078996658325,0.9866874814033508],"min":[-0.8953917622566223,0.06307932734489441,0.3222336769104004],"type":"VEC3"},{"bufferView":2,"byteOffset":37224,"componentType":5126,"count":82,"max":[1.9948718547821045,0.9908443093299866],"min":[0.6570554375648499,0.44341230392456055],"type":"VEC2"},{"bufferView":1,"byteOffset":82488,"componentType":5125,"count":336,"type":"SCALAR"},{"bufferView":5,"componentType":5126,"count":89,"max":[1.0,1.0,0.9940651059150696,0.0,0.9986820220947266,1.0,1.0,0.0,1.0,0.954401433467865,1.0,0.0,164.5380096435547,199.9586944580078,196.07504272460938,1.0],"min":[-0.25553953647613525,-0.7120808362960815,-0.8325989246368408,0.0,-0.9903083443641663,-0.9986819624900818,-0.9994639754295349,0.0,-0.826126217842102,-0.9609613418579102,-0.9986820220947266,0.0,-198.45858764648438,-170.64984130859375,-216.7555389404297,1.0],"type":"MAT4"},{"bufferView":0,"componentType":5123,"count":1480,"type":"VEC4"},{"bufferView":4,"componentType":5126,"count":1480,"max":[1.0,0.4999999403953552,0.3094060719013214,0.0],"min":[0.3463747203350067,0.0,0.0,0.0],"type":"VEC4"},{"bufferView":0,"byteOffset":11840,"componentType":5123,"count":96,"type":"VEC4"},{"bufferView":4,"byteOffset":23680,"componentType":5126,"count":96,"max":[1.0,0.4754609763622284,0.20328103005886078,0.027754196897149086],"min":[0.428472101688385,0.0,0.0,0.0],"type":"VEC4"},{"bufferView":0,"byteOffset":12608,"componentType":5123,"count":935,"type":"VEC4"},{"bufferView":4,"byteOffset":25216,"componentType":5126,"count":935,"max":[1.0,0.48816922307014465,0.02439204603433609,0.0],"min":[0.5118308067321777,0.0,0.0,0.0],"type":"VEC4"},{"bufferView":0,"byteOffset":20088,"componentType":5123,"count":430,"type":"VEC4"},{"bufferView":4,"byteOffset":40176,"componentType":5126,"count":430,"max":[1.0,0.5,0.32560962438583374,0.0],"min":[0.3378283977508545,0.0,0.0,0.0],"type":"VEC4"},{"bufferView":0,"byteOffset":23528,"componentType":5123,"count":575,"type":"VEC4"},{"bufferView":4,"byteOffset":47056,"componentType":5126,"count":575,"max":[1.0,0.49839699268341064,0.0367039293050766,0.0],"min":[0.5016030073165894,0.0,0.0,0.0],"type":"VEC4"},{"bufferView":0,"byteOffset":28128,"componentType":5123,"count":194,"type":"VEC4"},{"bufferView":4,"byteOffset":56256,"componentType":5126,"count":194,"max":[1.0,0.44999998807907104,0.3196721374988556,0.21413275599479675],"min":[0.2936401069164276,0.0,0.0,0.0],"type":"VEC4"},{"bufferView":0,"byteOffset":29680,"componentType":5123,"count":194,"type":"VEC4"},{"bufferView":4,"byteOffset":59360,"componentType":5126,"count":194,"max":[1.0,0.44999998807907104,0.3196721374988556,0.21413275599479675],"min":[0.2936401069164276,0.0,0.0,0.0],"type":"VEC4"},{"bufferView":0,"byteOffset":31232,"componentType":5123,"count":252,"type":"VEC4"},{"bufferView":4,"byteOffset":62464,"componentType":5126,"count":252,"max":[1.0,0.4979340136051178,0.0,0.0],"min":[0.5020660161972046,0.0,0.0,0.0],"type":"VEC4"},{"bufferView":0,"byteOffset":33248,"componentType":5123,"count":197,"type":"VEC4"},{"bufferView":4,"byteOffset":66496,"componentType":5126,"count":197,"max":[1.0,0.3674509525299072,0.18131472170352936,0.0],"min":[0.6120544672012329,0.0,0.0,0.0],"type":"VEC4"},{"bufferView":0,"byteOffset":34824,"componentType":5123,"count":30,"type":"VEC4"},{"bufferView":4,"byteOffset":69648,"componentType":5126,"count":30,"max":[1.0,0.367499977350235,0.16828227043151855,0.0],"min":[0.6088027954101562,0.0,0.0,0.0],"type":"VEC4"},{"bufferView":0,"byteOffset":35064,"componentType":5123,"count":212,"type":"VEC4"},{"bufferView":4,"byteOffset":70128,"componentType":5126,"count":212,"max":[1.0,0.47496235370635986,0.2976117432117462,0.0],"min":[0.359639436006546,0.0,0.0,0.0],"type":"VEC4"},{"bufferView":0,"byteOffset":36760,"componentType":5123,"count":58,"type":"VEC4"},{"bufferView":4,"byteOffset":73520,"componentType":5126,"count":58,"max":[1.0,0.18604235351085663,0.03623811528086662,0.019789526239037514],"min":[0.8139576315879822,0.0,0.0,0.0],"type":"VEC4"},{"bufferView":0,"byteOffset":37224,"componentType":5123,"count":82,"type":"VEC4"},{"bufferView":4,"byteOffset":74448,"componentType":5126,"count":82,"max":[1.0,0.45116281509399414,0.2061460018157959,0.0],"min":[0.4645601212978363,0.0,0.0,0.0],"type":"VEC4"}],"asset":{"extras":{"author":"ansaldotoys2 (https://sketchfab.com/ansaldotoys2)","license":"CC-BY-4.0 (http://creativecommons.org/licenses/by/4.0/)","source":"https://sketchfab.com/3d-models/invoker-dota-2-7572328187c14c1289d3fc7fc594ac22","title":"Invoker DOTA 2"},"generator":"Sketchfab-17.3.0","version":"2.0"},"bufferViews":[{"buffer":0,"byteLength":37880,"byteStride":8,"name":"shortBufferViews","target":34962},{"buffer":0,"byteLength":83832,"byteOffset":37880,"name":"floatBufferViews","target":34963},{"buffer":0,"byteLength":37880,"byteOffset":121712,"byteStride":8,"name":"floatBufferViews","target":34962},{"buffer":0,"byteLength":113640,"byteOffset":159592,"byteStride":12,"name":"floatBufferViews","target":34962},{"buffer":0,"byteLength":75760,"byteOffset":273232,"byteStride":16,"name":"floatBufferViews","target":34962},{"buffer":0,"byteLength":5696,"byteOffset":348992,"name":"floatBufferViews"}],"buffers":[{"byteLength":354688,"uri":"scene.bin"}],"images":[{"uri":"textures/blinn5_baseColor.webp"},{"uri":"textures/blinn8_baseColor.webp"},{"uri":"textures/blinn7_baseColor.webp"},{"uri":"textures/blinn9_baseColor.webp"},{"uri":"textures/blinn4_baseColor.webp"},{"uri":"textures/blinn3_baseColor.webp"},{"uri":"textures/blinn6_baseColor.webp"}],"materials":[{"doubleSided":true,"name":"blinn5","pbrMetallicRoughness":{"baseColorTexture":{"index":0},"metallicFactor":0.0,"roughnessFactor":0.9207483816249483}},{"doubleSided":true,"name":"blinn8","pbrMetallicRoughness":{"baseColorTexture":{"index":1},"metallicFactor":0.0,"roughnessFactor":0.9207483816249483}},{"doubleSided":true,"name":"blinn7","pbrMetallicRoughness":{"baseColorTexture":{"index":2},"metallicFactor":0.0,"roughnessFactor":0.9207483816249483}},{"doubleSided":true,"name":"blinn9","pbrMetallicRoughness":{"baseColorTexture":{"index":3},"metallicFactor":0.0,"roughnessFactor":0.9207483816249483}},{"doubleSided":true,"name":"blinn4","pbrMetallicRoughness":{"baseColorTexture":{"index":4},"metallicFactor":0.0,"roughnessFactor":0.9207483816249483}},{"doubleSided":true,"name":"blinn3","pbrMetallicRoughness":{"baseColorTexture":{"index":5},"metallicFactor":0.0,"roughnessFactor":0.9207483816249483}},{"doubleSided":true,"name":"blinn6","pbrMetallicRoughness":{"baseColorTexture":{"index":6},"metallicFactor":0.0,"roughnessFactor":0.9207483816249483}}],"meshes":[{"name":"invoker_base_blinn5_0","primitives":[{"attributes":{"JOINTS_0":53,"NORMAL":1,"POSITION":0,"TEXCOORD_0":2,"TEXCOORD_1":2,"TEXCOORD_2":2,"WEIGHTS_0":54},"indices":3,"material":0,"mode":4}]},{"name":"invoker_base_buttons_blinn5_0","primitives":[{"attributes":{"JOINTS_0":55,"NORMAL":5,"POSITION":4,"TEXCOORD_0":6,"TEXCOORD_1":6,"TEXCOORD_2":6,"WEIGHTS_0":56},"indices":7,"material":0,"mode":4}]},{"name":"invoker_base_head_blinn8_0","primitives":[{"attributes":{"JOINTS_0":57,"NORMAL":9,"POSITION":8,"TEXCOORD_0":10,"TEXCOORD_1":10,"TEXCOORD_2":10,"WEIGHTS_0":58},"indices":11,"material":1,"mode":4}]},{"name":"invoker_head_blinn7_0","primitives":[{"attributes":{"JOINTS_0":59,"NORMAL":13,"POSITION":12,"TEXCOORD_0":14,"TEXCOORD_1":14,"TEXCOORD_2":14,"WEIGHTS_0":60},"indices":15,"material":2,"mode":4}]},{"name":"invoker_shoulder_blinn9_0","primitives":[{"attributes":{"JOINTS_0":61,"NORMAL":17,"POSITION":16,"TEXCOORD_0":18,"TEXCOORD_1":18,"TEXCOORD_2":18,"WEIGHTS_0":62},"indices":19,"material":3,"mode":4}]},{"name":"invoker_back_blinn4_0","primitives":[{"attributes":{"JOINTS_0":63,"NORMAL":21,"POSITION":20,"TEXCOORD_0":22,"TEXCOORD_1":22,"TEXCOORD_2":22,"WEIGHTS_0":64},"indices":23,"material":4,"mode":4}]},{"name":"invoker_back_backface_blinn4_0","primitives":[{"attributes":{"JOINTS_0":65,"NORMAL":25,"POSITION":24,"TEXCOORD_0":26,"TEXCOORD_1":26,"TEXCOORD_2":26,"WEIGHTS_0":66},"indices":27,"material":4,"mode":4}]},{"name":"invoker_arms_blinn3_0","primitives":[{"attributes":{"JOINTS_0":67,"NORMAL":29,"POSITION":28,"TEXCOORD_0":30,"TEXCOORD_1":30,"TEXCOORD_2":30,"WEIGHTS_0":68},"indices":31,"material":5,"mode":4}]},{"name":"invoker_belt_detail_blinn6_0","primitives":[{"attributes":{"JOINTS_0":69,"NORMAL":33,"POSITION":32,"TEXCOORD_0":34,"TEXCOORD_1":34,"TEXCOORD_2":34,"WEIGHTS_0":70},"indices":35,"material":6,"mode":4}]},{"name":"invoker_belt_front_blinn6_0","primitives":[{"attributes":{"JOINTS_0":71,"NORMAL":37,"POSITION":36,"TEXCOORD_0":38,"TEXCOORD_1":38,"TEXCOORD_2":38,"WEIGHTS_0":72},"indices":39,"material":6,"mode":4}]},{"name":"invoker_belt_skirt_blinn6_0","primitives":[{"attributes":{"JOINTS_0":73,"NORMAL":41,"POSITION":40,"TEXCOORD_0":42,"TEXCOORD_1":42,"TEXCOORD_2":42,"WEIGHTS_0":74},"indices":43,"material":6,"mode":4}]},{"name":"invoker_belt_blinn6_0","primitives":[{"attributes":{"JOINTS_0":75,"NORMAL":45,"POSITION":44,"TEXCOORD_0":46,"TEXCOORD_1":46,"TEXCOORD_2":46,"WEIGHTS_0":76},"indices":47,"material":6,"mode":4}]},{"name":"invoker_belt_front_frills_blinn6_0","primitives":[{"attributes":{"JOINTS_0":77,"NORMAL":49,"POSITION":48,"TEXCOORD_0":50,"TEXCOORD_1":50,"TEXCOORD_2":50,"WEIGHTS_0":78},"indices":51,"material":6,"mode":4}]}],"nodes":[{"children":[1],"matrix":[1.0,0.0,0.0,0.0,0.0,2.220446049250313e-16,-1.0,0.0,0.0,1.0,2.220446049250313e-16,0.0,0.0,0.0,0.0,1.0],"name":"Sketchfab_model"},{"children":[2],"matrix":[0.009999999776482582,0.0,0.0,0.0,0.0,0.0,0.009999999776482582,0.0,0.0,-0.009999999776482582,0.0,0.0,0.0,0.0,0.0,1.0],"name":"invoker_econ.fbx"},{"children":[3],"name":"RootNode"},{"children":[4,6,8,10,12,14,16,18,20,22,24,26,28,30,5,7,9,11,13,15,17,19,21,23,25,27,29],"name":"Object_3"},{"children":[31,112,113,115,117],"name":"_rootJoint"},{"matrix":[1.0,0.0,-1.290337913944983e-46,0.0,0.0,1.0,0.0,0.0,1.290337913944983e-46,0.0,1.0,0.0,0.0,0.0,0.0,1.0],"name":"Object_5"},{"mesh":0,"name":"Object_6","skin":0},{"matrix":[1.0,0.0,-1.290337913944983e-46,0.0,0.0,1.0,0.0,0.0,1.290337913944983e-46,0.0,1.0,0.0,0.0,0.0,0.0,1.0],"name":"Object_7"},{"mesh":1,"name":"Object_8","skin":0},{"matrix":[1.0,-4.622231866529366e-33,0.0,0.0,4.622231866529366e-33,1.0,6.938893903907228e-18,0.0,-3.207317652110635e-50,-6.938893903907228e-18,1.0,0.0,0.0,0.0,-2.7755575615628914e-16,1.0],"name":"Object_9"},{"mesh":2,"name":"Object_10","skin":0},{"matrix":[1.0,0.0,-1.290337913944983e-46,0.0,0.0,1.0,0.0,0.0,1.290337913944983e-46,0.0,1.0,0.0,0.0,0.0,0.0,1.0],"name":"Object_11"},{"mesh":3,"name":"Object_12","skin":0},{"matrix":[1.0,0.0,-1.290337913944983e-46,0.0,0.0,1.0,0.0,0.0,1.290337913944983e-46,0.0,1.0,0.0,0.0,0.0,0.0,1.0],"name":"Object_13"},{"mesh":4,"name":"Object_14","skin":0},{"matrix":[1.0,0.0,-1.290337913944983e-46,0.0,0.0,1.0,0.0,0.0,1.290337913944983e-46,0.0,1.0,0.0,0.0,0.0,0.0,1.0],"name":"Object_15"},{"mesh":5,"name":"Object_16","skin":0},{"matrix":[1.0,0.0,-1.290337913944983e-46,0.0,0.0,1.0,0.0,0.0,1.290337913944983e-46,0.0,1.0,0.0,0.0,0.0,0.0,1.0],"name":"Object_17"},{"mesh":6,"name":"Object_18","skin":0},{"matrix":[1.0,0.0,-1.290337913944983e-46,0.0,0.0,1.0,0.0,0.0,1.290337913944983e-46,0.0,1.0,0.0,0.0,0.0,0.0,1.0],"name":"Object_19"},{"mesh":7,"name":"Object_20","skin":0},{"matrix":[1.0,0.0,-1.290337913944983e-46,0.0,0.0,1.0,0.0,0.0,1.290337913944983e-46,0.0,1.0,0.0,0.0,0.0,0.0,1.0],"name":"Object_21"},{"mesh":8,"name":"Object_22","skin":0},{"matrix":[1.0,0.0,-1.290337913944983e-46,0.0,0.0,1.0,0.0,0.0,1.290337913944983e-46,0.0,1.0,0.0,0.0,0.0,0.0,1.0],"name":"Object_23"},{"mesh":9,"name":"Object_24","skin":0},{"matrix":[1.0,0.0,-1.290337913944983e-46,0.0,0.0,1.0,0.0,0.0,1.290337913944983e-46,0.0,1.0,0.0,0.0,0.0,0.0,1.0],"name":"Object_25"},{"mesh":10,"name":"Object_26","skin":0},{"matrix":[1.0,0.0,-1.290337913944983e-46,0.0,0.0,1.0,0.0,0.0,1.290337913944983e-46,0.0,1.0,0.0,0.0,0.0,0.0,1.0],"name":"Object_27"},{"mesh":11,"name":"Object_28","skin":0},{"matrix":[1.0,0.0,-1.290337913944983e-46,0.0,0.0,1.0,0.0,0.0,1.290337913944983e-46,0.0,1.0,0.0,0.0,0.0,0.0,1.0],"name":"Object_29"},{"mesh":12,"name":"Object_30","skin":0},{"children":[32,36,40,101,104,107,110],"name":"Root_0_01","rotation":[-0.5,-0.5,-0.5,0.5],"translation":[0.0,150.28683471679688,3.84853196144104]},{"children":[33],"name":"thigh_R_02","rotation":[-0.05746126174926758,-0.681096613407135,0.03432730585336685,0.7291277050971985],"scale":[1.000000238418579,1.0000001192092896,1.0],"translation":[0.18191170692443848,-13.647018432617188,-8.323776245117188]},{"children":[34],"name":"knee_R_03","rotation":[6.086411490777429e-18,0.05467629060149193,-1.596918494647923e-17,0.9985041618347168],"scale":[0.9999998211860657,0.9999998211860657,1.0],"translation":[-55.743812561035156,-1.253646360055427e-07,5.083236374048283e-07]},{"children":[35],"name":"ankle_R_04","rotation":[-0.29404211044311523,-0.5581672191619873,-0.0856664627790451,0.7711354494094849],"scale":[0.9999999403953552,1.0,1.0],"translation":[-49.968509674072266,-9.507731419944321e-07,-2.496526292361523e-07]},{"name":"toeBase_R_05","rotation":[0.033638402819633484,-0.5371712446212769,-0.05267423391342163,0.8411545157432556],"scale":[1.000000238418579,1.0000001192092896,1.0000003576278687],"translation":[-17.331085205078125,-8.28564225230366e-07,3.1000843137007905e-07]},{"children":[37],"name":"thigh_L_06","rotation":[0.03432730585336685,0.7291277050971985,0.05746126174926758,0.681096613407135],"scale":[1.000000238418579,1.000000238418579,1.0000003576278687],"translation":[0.18191218376159668,13.647019386291504,-8.323776245117188]},{"children":[38],"name":"knee_L_07","rotation":[-6.690869070509608e-19,0.05467626452445984,-1.9508240801340406e-17,0.9985041618347168],"scale":[0.9999998211860657,0.9999997615814209,0.9999996423721313],"translation":[55.743812561035156,1.0713343954193988e-06,-5.027238216825936e-07]},{"children":[39],"name":"ankle_L_08","rotation":[-0.2926563024520874,-0.5454902648925781,-0.06474944204092026,0.782687783241272],"scale":[1.000000238418579,1.0000001192092896,1.000000238418579],"translation":[49.968509674072266,-9.53780045165331e-07,6.510285288641171e-07]},{"name":"toeBase_L_09","rotation":[0.03363834321498871,-0.5371712446212769,-0.05267421528697014,0.8411545157432556],"scale":[0.9999999403953552,0.9999999403953552,0.9999997615814209],"translation":[17.331079483032227,-3.414727643757942e-06,-1.6473078403578256e-06]},{"children":[41],"name":"Spine_0_010","rotation":[8.644233277548192e-17,-0.7479075193405151,8.644233277548192e-17,0.663802981376648],"translation":[-1.1609690189361572,1.376428539288238e-21,17.072677612304688]},{"children":[42,56,60,74,75,76,82,88,94,100],"name":"Spine_1_011","rotation":[2.396299159954577e-32,0.03382604196667671,2.0771728679206715e-32,0.9994277358055115],"scale":[1.0,1.0,0.9999999403953552],"translation":[20.76679801940918,-8.933550615572699e-22,1.772691149426464e-07]},{"children":[43],"name":"clavicle_R_012","rotation":[0.5728607177734375,0.41452452540397644,-0.5652323961257935,-0.4248674213886261],"scale":[1.0,1.0,0.9999999403953552],"translation":[8.255343437194824,-7.251829147338867,-1.08182692527771]},{"children":[44],"name":"bicep_R_013","rotation":[0.8267096877098083,-0.2481033205986023,-0.33005350828170776,-0.3821786344051361],"translation":[-14.974910736083984,1.7763568394002505e-15,2.842170943040401e-14]},{"children":[45],"name":"elbow_R_014","rotation":[-4.423796326647074e-17,0.30130186676979065,-4.423796326647074e-17,0.9535288214683533],"translation":[-30.272130966186523,-4.263256414560601e-14,-2.842170943040401e-14]},{"children":[46,48,50,52,54],"name":"wrist_R_015","rotation":[-0.12139434367418289,-0.1651936173439026,-0.10532458126544952,0.9730783104896545],"translation":[-31.109130859375,5.684341886080802e-14,5.684341886080802e-14]},{"children":[47],"name":"mid_0_R_016","rotation":[0.6581564545631409,0.24845992028713226,0.21498337388038635,0.6774067282676697],"translation":[-12.071179389953613,-2.7981810569763184,2.362900972366333]},{"name":"mid_1_R_017","rotation":[2.7755575615628914e-17,2.7755575615628914e-17,-1.3877787807814457e-17,1.0],"translation":[-4.0155158042907715,2.842170943040401e-14,-7.105427357601002e-15]},{"children":[49],"name":"thumb_0_R_018","rotation":[0.8694409132003784,0.37246596813201904,-0.32356777787208557,0.025411121547222137],"translation":[-1.0730290412902832,-1.9374560117721558,3.417419910430908]},{"name":"thumb_1_R_019","rotation":[2.6020852139652106e-18,-1.734723475976807e-18,2.7755575615628914e-17,1.0],"translation":[-5.103305816650391,-7.105427357601002e-15,2.842170943040401e-14]},{"children":[51],"name":"pinky_0_R_020","rotation":[0.5681318044662476,0.19386939704418182,0.3396800756454468,0.7240568995475769],"translation":[-10.44352912902832,-3.6559040546417236,-3.1212379932403564]},{"name":"pinky_1_R_021","rotation":[4.163336342344337e-17,-2.7755575615628914e-17,-4.163336342344337e-17,1.0],"translation":[-3.263676881790161,0.0,0.0]},{"children":[53],"name":"index_0_R_022","rotation":[0.7404165267944336,0.275083065032959,0.14327368140220642,0.5963097810745239],"translation":[-10.758824348449707,-2.7718698978424072,6.191590785980225]},{"name":"index_1_R_023","rotation":[0.0,-0.0,-2.7755575615628914e-17,1.0],"translation":[-4.1321868896484375,2.842170943040401e-14,0.0]},{"children":[55],"name":"ring_0_R_024","rotation":[0.5417735576629639,0.29124152660369873,0.336195170879364,0.7131848335266113],"translation":[-11.7047758102417,-3.1513729095458984,-0.5816360116004944]},{"name":"ring_1_R_025","rotation":[2.7755575615628914e-17,-5.551115123125783e-17,1.5407439555097887e-33,1.0],"translation":[-3.946898937225342,0.0,3.552713678800501e-15]},{"children":[57,59],"name":"Head_0_026","rotation":[2.691067739671506e-32,0.1707146316766739,-1.0917282560407067e-32,0.9853206276893616],"scale":[1.0,1.0000001192092896,0.9999999403953552],"translation":[19.496030807495117,-4.0829635035617446e-21,6.733361601618526e-07]},{"children":[58],"name":"Head_1_027","rotation":[-1.1991601083896523e-31,0.5968078374862671,1.1991601083896523e-31,0.8023843169212341],"scale":[1.0,0.9999998807907104,0.9999999403953552],"translation":[9.716416358947754,4.6586808060018684e-21,4.169888143223943e-06]},{"name":"Head_1_027_0"},{"name":"Head_0_026_0"},{"children":[61],"name":"clavicle_L_028","rotation":[0.5652323961257935,0.4248674213886261,0.5728607177734375,0.41452452540397644],"scale":[1.0,1.0,0.9999999403953552],"translation":[8.255343437194824,7.251829147338867,-1.08182692527771]},{"children":[62],"name":"bicep_L_029","rotation":[0.8267096877098083,-0.2481033205986023,-0.33005350828170776,-0.3821786344051361],"translation":[14.974910736083984,0.0,0.0]},{"children":[63],"name":"elbow_L_030","rotation":[7.489212533227327e-17,0.30130186676979065,-5.277314039031545e-17,0.9535288214683533],"translation":[30.272130966186523,0.0,4.263256414560601e-14]},{"children":[64,66,68,70,72],"name":"wrist_L_031","rotation":[-0.12139434367418289,-0.1651936173439026,-0.10532458126544952,0.9730783104896545],"translation":[31.109130859375,-1.4210854715202004e-14,-8.526512829121202e-14]},{"children":[65],"name":"ring_0_L_032","rotation":[0.5417735576629639,0.29124152660369873,0.336195170879364,0.7131848335266113],"translation":[11.7047758102417,3.1513729095458984,0.5816360116004944]},{"name":"ring_1_L_033","rotation":[-4.163336342344337e-17,-2.7755575615628914e-17,-5.551115123125783e-17,1.0],"translation":[3.946898937225342,2.842170943040401e-14,1.7763568394002505e-14]},{"children":[67],"name":"pinky_0_L_034","rotation":[0.5681318044662476,0.19386939704418182,0.3396800756454468,0.7240568995475769],"translation":[10.44352912902832,3.6559040546417236,3.1212379932403564]},{"name":"pinky_1_L_035","rotation":[1.3877787807814457e-17,1.925929944387236e-34,1.3877787807814457e-17,1.0],"translation":[3.263676881790161,0.0,3.552713678800501e-15]},{"children":[69],"name":"index_0_L_036","rotation":[0.7404165267944336,0.275083065032959,0.14327368140220642,0.5963097810745239],"translation":[10.758824348449707,2.7718698978424072,-6.191590785980225]},{"name":"index_1_L_037","rotation":[5.551115123125783e-17,0.0,0.0,1.0],"translation":[4.1321868896484375,2.842170943040401e-14,0.0]},{"children":[71],"name":"thumb_0_L_038","rotation":[0.8694409132003784,0.37246596813201904,-0.32356777787208557,0.025411121547222137],"translation":[1.0730290412902832,1.9374560117721558,-3.417419910430908]},{"name":"thumb_1_L_039","rotation":[1.734723475976807e-18,-8.673617379884035e-19,1.504632769052528e-36,1.0],"translation":[5.103305816650391,7.105427357601002e-15,0.0]},{"children":[73],"name":"mid_0_L_040","rotation":[0.6581564545631409,0.24845992028713226,0.21498337388038635,0.6774067282676697],"translation":[12.071179389953613,2.7981810569763184,-2.362900972366333]},{"name":"mid_1_L_041","rotation":[-1.3877787807814457e-17,1.925929944387236e-34,-1.3877787807814457e-17,1.0],"translation":[4.0155158042907715,-2.842170943040401e-14,-1.4210854715202004e-14]},{"name":"shoulderPad_L_00","rotation":[-1.7431529155250538e-32,1.7431529155250538e-32,0.7071068286895752,0.7071068286895752],"translation":[12.109189987182617,23.86880111694336,7.999014854431152]},{"name":"shoulderPad_R_042","rotation":[-1.7431529155250538e-32,1.7431529155250538e-32,0.7071068286895752,0.7071068286895752],"translation":[12.238425254821777,-24.77463722229004,7.992372989654541]},{"children":[77],"name":"invoker_cape_R0C0_043","rotation":[0.13175474107265472,0.9787300825119019,-0.009024232625961304,-0.15699264407157898],"scale":[0.9999999403953552,1.0,1.0],"translation":[4.066720008850098,41.939208984375,14.185440063476562]},{"children":[78],"name":"invoker_cape_R1C0_044","rotation":[-0.5392903089523315,0.0019976142793893814,-0.0031192824244499207,0.8421117663383484],"translation":[15.804590225219727,0.0,7.105427357601002e-15]},{"children":[79],"name":"invoker_cape_R2C0_045","rotation":[0.0,-2.0816681711721685e-17,0.0,1.0],"translation":[29.14112091064453,-5.010883796785492e-07,0.0]},{"children":[80],"name":"invoker_cape_R3C0_046","rotation":[2.8888949165808538e-34,-6.938893903907228e-18,4.163336342344337e-17,1.0],"translation":[43.43598937988281,-7.468905209861987e-07,-1.4210854715202004e-14]},{"children":[81],"name":"invoker_cape_R4C0_047","rotation":[5.551115123125783e-17,-6.938893903907228e-18,-4.163336342344337e-17,1.0],"translation":[24.62405014038086,-4.234154857840622e-07,2.842170943040401e-14]},{"name":"invoker_cape_R5C0_048","rotation":[0.0,0.0,1.3877787807814457e-17,1.0],"translation":[16.75511932373047,-2.881076568428398e-07,-1.4210854715202004e-14]},{"children":[83],"name":"invoker_cape_R0C1_049","rotation":[0.04804547131061554,0.9858331084251404,-0.016763480380177498,-0.15982456505298615],"scale":[0.9999999403953552,1.0,1.0],"translation":[-5.740379810333252,17.69244956970215,33.923099517822266]},{"children":[84],"name":"invoker_cape_R1C1_050","rotation":[-0.6930311322212219,0.0025670884642750025,-0.002670289482921362,0.7208982110023499],"translation":[15.804590225219727,2.1316282072803006e-14,5.684341886080802e-14]},{"children":[85],"name":"invoker_cape_R2C1_051","rotation":[2.2538458210874524e-08,1.567442708960698e-08,2.8276000207938523e-08,1.0],"translation":[29.14112091064453,-5.010883228351304e-07,-6.039613253960852e-14]},{"children":[86],"name":"invoker_cape_R3C1_052","rotation":[2.2538458210874524e-08,1.567442708960698e-08,3.6873601061415684e-08,1.0],"translation":[43.43598937988281,-5.826450433232822e-13,-3.907985046680551e-14]},{"children":[87],"name":"invoker_cape_R4C1_053","rotation":[2.2538458210874524e-08,1.567442708960698e-08,3.6873601061415684e-08,1.0],"translation":[24.62405014038086,-6.394884621840902e-13,-2.842170943040401e-14]},{"name":"invoker_cape_R5C1_054","rotation":[2.2538458210874524e-08,1.567442708960698e-08,3.6873601061415684e-08,1.0],"translation":[16.75511932373047,-1.4210854715202004e-14,-7.105427357601002e-15]},{"children":[89],"name":"invoker_cape_R0C2_055","rotation":[-0.043223511427640915,0.9862729907035828,0.005127683747559786,-0.15928292274475098],"scale":[0.9999999403953552,1.0,1.0],"translation":[-5.740379810333252,-17.69244956970215,33.923099517822266]},{"children":[90],"name":"invoker_cape_R1C2_056","rotation":[-0.8199557662010193,0.0030372312758117914,-0.0021202859934419394,0.5724149346351624],"translation":[15.804590225219727,1.4210854715202004e-14,1.4210854715202004e-14]},{"children":[91],"name":"invoker_cape_R2C2_057","rotation":[2.2538458210874524e-08,1.567442708960698e-08,2.8276000207938523e-08,1.0],"translation":[29.14112091064453,-5.010883796785492e-07,-3.907985046680551e-14]},{"children":[92],"name":"invoker_cape_R3C2_058","rotation":[2.2538458210874524e-08,1.567442708960698e-08,3.6873601061415684e-08,1.0],"translation":[43.43598937988281,-5.400124791776761e-13,-4.263256414560601e-14]},{"children":[93],"name":"invoker_cape_R4C2_059","rotation":[2.2538458210874524e-08,1.567442708960698e-08,3.6873601061415684e-08,1.0],"translation":[24.62405014038086,-6.536993168992922e-13,-1.4210854715202004e-14]},{"name":"invoker_cape_R5C2_060","rotation":[2.2538456434517684e-08,1.567442708960698e-08,3.6873601061415684e-08,1.0],"translation":[16.75511932373047,-1.4210854715202004e-14,2.1316282072803006e-14]},{"children":[95],"name":"invoker_cape_R0C3_061","rotation":[-0.1216319277882576,0.9790521264076233,0.031858738511800766,-0.16014881432056427],"scale":[0.9999999403953552,1.0,1.0],"translation":[4.066720008850098,-41.939208984375,14.185440063476562]},{"children":[96],"name":"invoker_cape_R1C3_062","rotation":[-0.8567160964012146,0.0031733952928334475,-0.0019104847451671958,0.515775203704834],"translation":[15.804590225219727,1.4210854715202004e-14,4.263256414560601e-14]},{"children":[97],"name":"invoker_cape_R2C3_063","rotation":[2.2538458210874524e-08,1.567442531325014e-08,2.8276000207938523e-08,1.0],"translation":[29.14112091064453,-5.010883228351304e-07,-6.394884621840902e-14]},{"children":[98],"name":"invoker_cape_R3C3_064","rotation":[2.2538458210874524e-08,1.567442708960698e-08,3.6873601061415684e-08,1.0],"translation":[43.43598937988281,6.36225700378418,-4.263256414560601e-14]},{"children":[99],"name":"invoker_cape_R4C3_065","rotation":[2.2538458210874524e-08,1.567442708960698e-08,3.6873601061415684e-08,1.0],"translation":[24.62405014038086,-6.679101716144942e-13,-2.1316282072803006e-14]},{"name":"invoker_cape_R5C3_066","rotation":[2.2538458210874524e-08,1.567442708960698e-08,3.6873601061415684e-08,1.0],"translation":[16.75511932373047,-1.4210854715202004e-14,-1.4210854715202004e-14]},{"name":"Spine_1_011_0"},{"children":[102],"name":"manSkirt_R0C0_067","rotation":[0.2024330347776413,0.6594191193580627,-0.3231923282146454,0.647868812084198],"translation":[-6.7360429763793945,-23.147624969482422,-39.33673095703125]},{"children":[103],"name":"manSkirt_R1C0_068","rotation":[0.0048293801955878735,0.011141382157802582,0.0050423587672412395,0.9999135732650757],"translation":[21.981157302856445,0.0,-3.552713678800501e-15]},{"name":"manSkirt_R2C0_069","rotation":[2.7755575615628914e-17,1.3877787807814457e-17,-1.3877787807814457e-17,1.0],"translation":[24.064706802368164,-7.815970093361102e-14,-1.1723955140041653e-13]},{"children":[105],"name":"manSkirt_R0C1_070","rotation":[0.30131128430366516,0.6799817085266113,-0.36237287521362305,0.561713695526123],"translation":[-21.780712127685547,0.027319999411702156,-37.346317291259766]},{"children":[106],"name":"manSkirt_R1C1_071","rotation":[-0.0018886530306190252,0.011966326273977757,-0.000717226997949183,0.9999263882637024],"translation":[21.981157302856445,-7.105427357601002e-15,0.0]},{"name":"manSkirt_R2C1_072","rotation":[-2.7755575615628914e-17,-1.3877787807814457e-17,1.3877787807814457e-17,1.0],"translation":[24.06410789489746,-7.105427357601002e-15,0.0]},{"children":[108],"name":"manSkirt_R0C2_073","rotation":[0.6262686252593994,0.4123274087905884,-0.6059027910232544,0.26581108570098877],"translation":[-6.644400119781494,23.000141143798828,-39.638545989990234]},{"children":[109],"name":"manSkirt_R1C2_074","rotation":[-0.000660833204165101,0.0037625066470354795,-0.005033482331782579,0.9999800324440002],"translation":[21.981157302856445,0.0,0.0]},{"name":"manSkirt_R2C2_075","rotation":[5.551115123125783e-17,-2.0816681711721685e-17,1.1555579666323415e-33,1.0],"translation":[24.05344009399414,4.973799150320701e-14,4.973799150320701e-14]},{"children":[111],"name":"belt5_0_076","rotation":[-4.36754661561792e-32,0.6561682820320129,5.022818594644111e-32,0.7546145915985107],"translation":[17.191110610961914,-0.12101200222969055,-10.759754180908203]},{"name":"belt5_1_077","rotation":[2.465190328815662e-32,0.0,9.244463733058732e-33,1.0],"translation":[32.671993255615234,0.0,0.0]},{"name":"orbs_root_078","rotation":[-0.5,-0.5,-0.5,0.5]},{"children":[114],"name":"orb1_079","rotation":[0.7071068286895752,0.7071068286895752,-4.329780963457767e-17,-4.329780963457767e-17],"translation":[-82.83623504638672,250.0,-47.91718292236328]},{"name":"attach_orb1_080","rotation":[0.7071068286895752,0.7071068286895752,-8.659561926915534e-17,8.715764577625269e-33]},{"children":[116],"name":"orb2_081","rotation":[0.7071068286895752,0.7071068286895752,-4.329780963457767e-17,-4.329780963457767e-17],"translation":[-2.451436507944476e-14,250.0,74.5774154663086]},{"name":"attach_orb2_082","rotation":[0.7071068286895752,0.7071068286895752,-8.659561926915534e-17,8.715764577625269e-33]},{"children":[118],"name":"orb3_083","rotation":[0.7071068286895752,0.7071068286895752,-4.329780963457767e-17,-4.329780963457767e-17],"translation":[67.45883178710938,250.0,-58.34960174560547]},{"name":"attach_orb3_084","rotation":[0.7071068286895752,0.7071068286895752,-8.659561926915534e-17,8.715764577625269e-33]}],"samplers":[{"magFilter":9729,"minFilter":9987,"wrapS":10497,"wrapT":10497}],"scene":0,"scenes":[{"name":"Sketchfab_Scene","nodes":[0]}],"skins":[{"inverseBindMatrices":52,"joints":[4,31,32,33,34,35,36,37,38,39,40,41,42,43,44,45,46,47,48,49,50,51,52,53,54,55,56,57,58,59,60,61,62,63,64,65,66,67,68,69,70,71,72,73,74,75,76,77,78,79,80,81,82,83,84,85,86,87,88,89,90,91,92,93,94,95,96,97,98,99,100,101,102,103,104,105,106,107,108,109,110,111,112,113,114,115,116,117,118],"skeleton":4}],"textures":[{"sampler":0,"source":0},{"sampler":0,"source":1},{"sampler":0,"source":2},{"sampler":0,"source":3},{"sampler":0,"source":4},{"sampler":0,"source":5},{"sampler":0,"source":6}]}